<svg width="13" height="13" viewBox="0 0 13 13" fill="none" xmlns="http://www.w3.org/2000/svg">
<path d="M9.61458 1.625C10.5868 1.625 11.375 2.41316 11.375 3.38542V9.61458C11.375 10.5868 10.5868 11.375 9.61458 11.375H3.38542C2.41316 11.375 1.625 10.5868 1.625 9.61458V3.38542C1.625 2.41316 2.41316 1.625 3.38542 1.625H9.61458ZM10.5625 4.60417H2.4375V9.61458C2.4375 10.1381 2.8619 10.5625 3.38542 10.5625H9.61458C10.1381 10.5625 10.5625 10.1381 10.5625 9.61458V4.60417ZM4.19792 7.85417C4.57186 7.85417 4.875 8.15728 4.875 8.53125C4.875 8.90522 4.57186 9.20833 4.19792 9.20833C3.82397 9.20833 3.52083 8.90522 3.52083 8.53125C3.52083 8.15728 3.82397 7.85417 4.19792 7.85417ZM6.5 7.85417C6.87397 7.85417 7.17708 8.15728 7.17708 8.53125C7.17708 8.90522 6.87397 9.20833 6.5 9.20833C6.12603 9.20833 5.82292 8.90522 5.82292 8.53125C5.82292 8.15728 6.12603 7.85417 6.5 7.85417ZM4.19792 5.6875C4.57186 5.6875 4.875 5.99062 4.875 6.36458C4.875 6.73855 4.57186 7.04167 4.19792 7.04167C3.82397 7.04167 3.52083 6.73855 3.52083 6.36458C3.52083 5.99062 3.82397 5.6875 4.19792 5.6875ZM6.5 5.6875C6.87397 5.6875 7.17708 5.99062 7.17708 6.36458C7.17708 6.73855 6.87397 7.04167 6.5 7.04167C6.12603 7.04167 5.82292 6.73855 5.82292 6.36458C5.82292 5.99062 6.12603 5.6875 6.5 5.6875ZM8.80208 5.6875C9.17605 5.6875 9.47917 5.99062 9.47917 6.36458C9.47917 6.73855 9.17605 7.04167 8.80208 7.04167C8.42812 7.04167 8.125 6.73855 8.125 6.36458C8.125 5.99062 8.42812 5.6875 8.80208 5.6875ZM9.61458 2.4375H3.38542C2.8619 2.4375 2.4375 2.8619 2.4375 3.38542V3.79167H10.5625V3.38542C10.5625 2.8619 10.1381 2.4375 9.61458 2.4375Z" fill="white"/>
</svg>
