<svg viewBox="0 0 13 13" fill="none" xmlns="http://www.w3.org/2000/svg">
<g clip-path="url(#clip0_1912_8373)">
<path d="M12.9121 1.43089L12.9499 1.46644L12.9855 1.5041C13.2943 1.85011 13.2824 2.3807 12.9499 2.71249L9.99669 5.65939C9.92837 5.72754 9.8434 5.77676 9.75019 5.80213L8.48789 6.14566C8.34974 6.18325 8.22298 6.05675 8.26066 5.91891L8.60492 4.6593C8.63034 4.56628 8.67965 4.48151 8.74797 4.41333L11.7012 1.46644C12.0337 1.13464 12.5654 1.12279 12.9121 1.43089ZM11.4619 2.2275L9.00969 4.6745C8.98691 4.69722 8.97048 4.72546 8.962 4.75649L8.70295 5.7043L9.6528 5.44579C9.68388 5.43735 9.7122 5.42095 9.73497 5.39822L12.1871 2.95115L11.4619 2.2275ZM8.25392 6.15237C8.15171 6.15237 8.25392 6.25435 8.25392 6.15237C8.15171 6.15237 8.25392 6.05038 8.25392 6.15237ZM8.21529 6.11443C8.25374 6.15237 8.25392 6.25436 8.25392 6.15237C8.25392 6.05038 8.21533 6.18544 8.21529 6.11443ZM11.9629 1.7276L11.7235 1.96625L12.4487 2.69015L12.6882 2.45133C12.8885 2.25148 12.8885 1.92745 12.6882 1.7276C12.4879 1.52775 12.1632 1.52775 11.9629 1.7276ZM8.21528 6.20837L8.21529 6.11443C8.21291 6.17943 8.22927 6.19759 8.21528 6.20837C8.21536 6.1903 8.21528 6.10639 8.21528 6.20837Z" fill="white"/>
<path d="M5.81463 6.78931C6.11392 6.78931 6.36669 6.99934 6.44793 7.2874V9.37898C6.44793 9.37898 6.1592 11.175 4.3975 11.1278C3.96673 11.2201 6.44793 8.89702 6.44793 9.37898C6.44793 9.37898 6.1592 11.175 4.3975 11.1278C3.64134 10.9462 3.07698 10.2321 3.07698 9.37898V7.48663C3.07698 7.10151 3.37275 6.78931 3.7376 6.78931H5.81463ZM6.83566 8.6348C7.22875 8.41176 7.88938 8 7.88938 8L8.55 7.48663C8.55 7.10151 8.25423 6.78931 7.88938 6.78931L6.6152 6.78893C6.7255 6.92981 6.80308 7.10027 6.83566 7.2874V8.6348ZM2.93706 6.78893C2.80514 6.95738 2.72003 7.16817 2.70274 7.39913L2.69948 7.48663V9.37898C2.69948 9.71632 2.77168 10.0359 2.90066 10.3214C2.77643 10.3568 2.64552 10.3756 2.51047 10.3756C1.67626 10.3756 1 9.66173 1 8.78119V7.48663C1 7.12075 1.26693 6.82071 1.60644 6.79162L1.66062 6.78931L2.93706 6.78893ZM4.775 4C5.40048 4 5.9075 4.53521 5.9075 5.19542C5.9075 5.85563 5.40048 6.39083 4.775 6.39083C4.14952 6.39083 3.6425 5.85563 3.6425 5.19542C3.6425 4.53521 4.14952 4 4.775 4ZM7.22875 4.39847C7.74996 4.39847 8.1725 4.84448 8.1725 5.39465C8.1725 5.94483 7.74996 6.39083 7.22875 6.39083C6.70754 6.39083 6.285 5.94483 6.285 5.39465C6.285 4.84448 6.70754 4.39847 7.22875 4.39847ZM2.32125 4.39847C2.84247 4.39847 3.265 4.84448 3.265 5.39465C3.265 5.94483 2.84247 6.39083 2.32125 6.39083C1.80003 6.39083 1.3775 5.94483 1.3775 5.39465C1.3775 4.84448 1.80003 4.39847 2.32125 4.39847ZM6.20411 8.41487C5.89139 8.41487 6.20411 8.08477 6.20411 8.41487L6.1592 8.37849C6.1592 8.21345 6.03565 8.432 6.19202 8.432C6.19202 8.26695 6.34838 8.432 6.19202 8.432L6.15604 8.41176L6.1543 8.3785L6.20411 8.41487C6.20411 8.24982 5.99522 8.32669 6.15158 8.32669C6.30794 8.32669 6.08405 8.21815 6.08405 8.38319L6.11917 8.38085L6.1592 8.37849L6.15604 8.41176C6.15604 8.08166 6.39677 8.38319 6.08405 8.38319L6.1543 8.3785L6.20411 8.41487C6.20411 8.02974 6.20411 8.41487 6.1592 8.37849C5.79435 8.37849 6.12119 8.5264 6.1592 8.37849L6.20411 8.41487ZM6.1592 8.37849C6.1592 8.32346 6.15198 8.41487 6.20411 8.41487C6.11429 8.41487 6.25625 8.41487 6.20411 8.41487L6.1592 8.37849ZM6.19062 8.18949L6.20411 8.41487L6.1592 8.37849C6.1592 8.43352 6.1592 8.45566 6.1592 8.40312C6.31557 8.40312 6.15158 8.49174 6.15158 8.32669L6.11917 8.38085L6.1592 8.37849C6.1592 8.54354 5.91059 8.32669 6.06695 8.32669C6.22331 8.32669 6.08405 8.54824 6.08405 8.38319L6.15158 8.32669L6.11917 8.38085L6.22219 8.42485C6.22219 8.75494 6.37967 8.32669 6.06695 8.32669L6.1592 8.37849C6.1592 8.32346 6.19062 8.51958 6.19062 8.18949Z" fill="white"/>
<path d="M3.73517 6.78931C3.43589 6.78931 3.18311 6.99934 3.10188 7.2874V9.37898C3.10188 9.37898 3.3906 11.175 5.1523 11.1278C5.58307 11.2201 3.10188 8.89702 3.10188 9.37898C3.10188 9.37898 3.3906 11.175 5.1523 11.1278C5.90847 10.9462 6.47283 10.2321 6.47283 9.37898V7.48663C6.47283 7.10151 6.17705 6.78931 5.8122 6.78931H3.73517ZM2.71415 8.6348C2.32105 8.41176 1.66043 8 1.66043 8L0.999804 7.48663C0.999804 7.10151 1.29558 6.78931 1.66043 6.78931L2.93461 6.78893C2.8243 6.92981 2.74672 7.10027 2.71415 7.2874V8.6348ZM6.61275 6.78893C6.74466 6.95738 6.82978 7.16817 6.84706 7.39913L6.85033 7.48663V9.37898C6.85033 9.71632 6.77813 10.0359 6.64914 10.3214C6.77338 10.3568 6.90429 10.3756 7.03934 10.3756C7.87354 10.3756 8.5498 9.66173 8.5498 8.78119V7.48663C8.5498 7.12075 8.28287 6.82071 7.94336 6.79162L7.88918 6.78931L6.61275 6.78893ZM4.7748 4C4.14932 4 3.6423 4.53521 3.6423 5.19542C3.6423 5.85563 4.14932 6.39083 4.7748 6.39083C5.40028 6.39083 5.9073 5.85563 5.9073 5.19542C5.9073 4.53521 5.40028 4 4.7748 4ZM2.32105 4.39847C1.79984 4.39847 1.37731 4.84448 1.37731 5.39465C1.37731 5.94483 1.79984 6.39083 2.32105 6.39083C2.84227 6.39083 3.2648 5.94483 3.2648 5.39465C3.2648 4.84448 2.84227 4.39847 2.32105 4.39847ZM7.22855 4.39847C6.70734 4.39847 6.2848 4.84448 6.2848 5.39465C6.2848 5.94483 6.70734 6.39083 7.22855 6.39083C7.74977 6.39083 8.1723 5.94483 8.1723 5.39465C8.1723 4.84448 7.74977 4.39847 7.22855 4.39847ZM3.34569 8.41487C3.65841 8.41487 3.34569 8.08477 3.34569 8.41487L3.3906 8.37849C3.3906 8.21345 3.51415 8.432 3.35779 8.432C3.35779 8.26695 3.20143 8.432 3.35779 8.432L3.39377 8.41176L3.39551 8.3785L3.34569 8.41487C3.34569 8.24982 3.55458 8.32669 3.39822 8.32669C3.24186 8.32669 3.46576 8.21815 3.46576 8.38319L3.43063 8.38085L3.3906 8.37849L3.39377 8.41176C3.39377 8.08166 3.15304 8.38319 3.46576 8.38319L3.39551 8.3785L3.34569 8.41487C3.34569 8.02974 3.34569 8.41487 3.3906 8.37849C3.75545 8.37849 3.42861 8.5264 3.3906 8.37849L3.34569 8.41487ZM3.3906 8.37849C3.3906 8.32346 3.39782 8.41487 3.34569 8.41487C3.43552 8.41487 3.29356 8.41487 3.34569 8.41487L3.3906 8.37849ZM3.35918 8.18949L3.34569 8.41487L3.3906 8.37849C3.3906 8.43352 3.3906 8.45566 3.3906 8.40312C3.23424 8.40312 3.39822 8.49174 3.39822 8.32669L3.43063 8.38085L3.3906 8.37849C3.3906 8.54354 3.63921 8.32669 3.48285 8.32669C3.32649 8.32669 3.46576 8.54824 3.46576 8.38319L3.39822 8.32669L3.43063 8.38085L3.32761 8.42485C3.32761 8.75494 3.17013 8.32669 3.48285 8.32669L3.3906 8.37849C3.3906 8.32346 3.35918 8.51958 3.35918 8.18949Z" fill="white"/>
</g>
<defs>
<clipPath id="clip0_1912_8373">
<rect width="13" height="13" fill="white"/>
</clipPath>
</defs>
</svg>
