<svg width="8" height="11" viewBox="0 0 8 11" fill="none" xmlns="http://www.w3.org/2000/svg">
<path d="M0 3.9C0 3.40294 0.402944 3 0.9 3H2.60156V4.89901C2.60156 5.39607 3.00452 5.79901 3.50156 5.79901H5.4V9.1C5.4 9.59704 4.99704 10 4.5 10H0.9C0.402944 10 0 9.59704 0 9.1V3.9ZM1.5 6.8C1.33432 6.8 1.2 6.93432 1.2 7.1C1.2 7.26568 1.33432 7.4 1.5 7.4C1.66568 7.4 1.8 7.26568 1.8 7.1C1.8 6.93432 1.66568 6.8 1.5 6.8ZM1.2 8.3C1.2 8.46568 1.33432 8.6 1.5 8.6C1.66568 8.6 1.8 8.46568 1.8 8.3C1.8 8.13432 1.66568 8 1.5 8C1.33432 8 1.2 8.13432 1.2 8.3ZM2.4 7.1C2.4 7.26568 2.53432 7.4 2.7 7.4H3.92152C4.0872 7.4 4.22152 7.26568 4.22152 7.1C4.22152 6.93432 4.0872 6.8 3.92152 6.8H2.7C2.53432 6.8 2.4 6.93432 2.4 7.1ZM2.7 8C2.53432 8 2.4 8.13432 2.4 8.3C2.4 8.46568 2.53432 8.6 2.7 8.6H3.92152C4.0872 8.6 4.22152 8.46568 4.22152 8.3C4.22152 8.13432 4.0872 8 3.92152 8H2.7ZM4 4.01911C4.03056 4.04264 4 4 4 3.97441V4.01911C4 3.97441 4.02071 3.98834 4.04435 4.01911L4 3.97441V4.01911ZM1.05156 10.4C1.17511 10.7496 1.50848 11 1.90035 11H4.50036C5.54968 11 6.40036 10.1494 6.40036 9.1V6.74756C6.40036 6.50884 6.30552 6.27992 6.13676 6.11115L5.80036 5.77476V9.1C5.80036 9.81796 5.21832 10.4 4.50036 10.4H1.05156Z" fill="#0092C1"/>
<path d="M7.70364 0.722516L7.7414 0.758066L7.777 0.795731C8.08576 1.14173 8.07389 1.67232 7.7414 2.00412L4.78819 4.95102C4.71988 5.01917 4.63491 5.06839 4.5417 5.09375L3.2794 5.43728C3.14125 5.47488 3.01448 5.34837 3.05216 5.21054L3.39642 3.95093C3.42185 3.85791 3.47115 3.77313 3.53947 3.70495L6.49267 0.758066C6.82519 0.426267 7.35691 0.414417 7.70364 0.722516ZM6.25344 1.51912L3.80119 3.96612C3.77842 3.98885 3.76198 4.01709 3.75351 4.04811L3.49446 4.99593L4.44431 4.73742C4.47538 4.72897 4.5037 4.71257 4.52647 4.68985L6.97864 2.24277L6.25344 1.51912ZM3.04543 5.44399C2.94322 5.44399 3.04543 5.54598 3.04543 5.44399C2.94322 5.44399 3.04543 5.34201 3.04543 5.44399ZM3.0068 5.40605C3.04524 5.44399 3.04543 5.54598 3.04543 5.44399C3.04543 5.34201 3.00684 5.47707 3.0068 5.40605ZM6.75439 1.01923L6.515 1.25788L7.2402 1.98178L7.47967 1.74296C7.67996 1.54311 7.67996 1.21908 7.47967 1.01923C7.27938 0.819373 6.95466 0.819373 6.75439 1.01923ZM3.00678 5.5L3.0068 5.40605C3.00441 5.47105 3.02077 5.48921 3.00678 5.5C3.00687 5.48192 3.00678 5.39801 3.00678 5.5Z" fill="#0092C1"/>
</svg>
