<svg width="8" height="10" viewBox="0 0 8 10" fill="none" xmlns="http://www.w3.org/2000/svg">
<path d="M0 1.125C0 0.50368 0.50368 0 1.125 0H3.25195V2.37376C3.25195 2.99509 3.75565 3.49877 4.37695 3.49877H6.75V7.625C6.75 8.2463 6.2463 8.75 5.625 8.75H1.125C0.50368 8.75 0 8.2463 0 7.625V1.125ZM1.875 4.75C1.66789 4.75 1.5 4.9179 1.5 5.125C1.5 5.3321 1.66789 5.5 1.875 5.5C2.0821 5.5 2.25 5.3321 2.25 5.125C2.25 4.9179 2.0821 4.75 1.875 4.75ZM1.5 6.625C1.5 6.8321 1.66789 7 1.875 7C2.0821 7 2.25 6.8321 2.25 6.625C2.25 6.4179 2.0821 6.25 1.875 6.25C1.66789 6.25 1.5 6.4179 1.5 6.625ZM3 5.125C3 5.3321 3.1679 5.5 3.375 5.5H4.9019C5.109 5.5 5.2769 5.3321 5.2769 5.125C5.2769 4.9179 5.109 4.75 4.9019 4.75H3.375C3.1679 4.75 3 4.9179 3 5.125ZM3.375 6.25C3.1679 6.25 3 6.4179 3 6.625C3 6.8321 3.1679 7 3.375 7H4.9019C5.109 7 5.2769 6.8321 5.2769 6.625C5.2769 6.4179 5.109 6.25 4.9019 6.25H3.375ZM4.00195 2.37376V0.23364C4.04015 0.263055 4.0766 0.295045 4.11105 0.329505L6.4205 2.63893C6.45515 2.67361 6.48735 2.71031 6.5169 2.74876H4.37695C4.16985 2.74876 4.00195 2.58087 4.00195 2.37376ZM1.31446 9.25C1.46889 9.68695 1.88561 10 2.37544 10H5.62545C6.9371 10 8.00045 8.9367 8.00045 7.625V4.68445C8.00045 4.38605 7.8819 4.0999 7.67095 3.88894L7.25045 3.46845V7.625C7.25045 8.52245 6.5229 9.25 5.62545 9.25H1.31446Z" fill="white"/>
</svg>
